<svg width="100" height="100" viewBox="0 0 100 100" fill="none" xmlns="http://www.w3.org/2000/svg">
<path d="M85 41H74.8587C74.7355 54.6297 63.6202 65.8516 50 65.8516V76C69.1799 76 84.8265 60.1955 85 41Z" fill="#FF0080"/>
<path d="M15 41H25.1414C25.2647 54.6297 36.3799 65.8516 50 65.8516V76C30.8203 76 15.1735 60.1955 15 41Z" fill="#35E2F2"/>
<path d="M85 41H74.8585C74.7353 27.3704 63.6201 16.1485 50 16.1485V6C69.1797 6 84.8265 21.8046 85 41Z" fill="#8C13FB"/>
<path d="M15 41H25.1414C25.2647 27.3704 36.3799 16.1485 50 16.1485V6C30.8203 6 15.1735 21.8046 15 41Z" fill="#F6DF0E"/>
<path d="M25.5566 88.6309C25.3691 88.6113 25.127 88.6016 24.8301 88.6016H23.0547V92H21.4492V84.166C21.5547 84.1738 21.6758 84.1797 21.8125 84.1836L22.2461 84.1953C22.543 84.2031 22.8516 84.207 23.1719 84.207C24.1328 84.207 25.0508 84.1914 25.9258 84.1602C25.8828 84.5039 25.8613 84.9629 25.8613 85.5371C25.8613 85.5996 25.8652 85.6465 25.873 85.6777L25.8613 85.6953C25.6543 85.6367 25.3652 85.6074 24.9941 85.6074H23.0547V87.2188H24.7656C25.1953 87.2188 25.4531 87.207 25.5391 87.1836L25.5566 88.6309ZM31.334 91.6367C30.7793 91.9375 30.2773 92.0879 29.8281 92.0879C29.3789 92.0879 28.9941 92.0469 28.6738 91.9648C28.3535 91.8789 28.082 91.7539 27.8594 91.5898C27.4062 91.2578 27.1797 90.7773 27.1797 90.1484C27.1797 89.5859 27.457 89.1172 28.0117 88.7422C28.6133 88.3359 29.4297 88.1328 30.4609 88.1328L30.6953 88.1387C30.7422 88.1426 30.7949 88.1465 30.8535 88.1504C30.9121 88.1504 30.9648 88.1543 31.0117 88.1621C30.9805 87.5371 30.7109 87.1719 30.2031 87.0664C30.0352 87.0312 29.8555 87.0137 29.6641 87.0137C29.4766 87.0137 29.291 87.0312 29.1074 87.0664C28.9277 87.0977 28.752 87.1406 28.5801 87.1953C28.2012 87.3164 27.9297 87.4551 27.7656 87.6113L27.748 87.5996L27.5723 86.3047C28.2637 85.9414 29.0195 85.7598 29.8398 85.7598C31.1133 85.7598 31.9277 86.2188 32.2832 87.1367C32.3965 87.4297 32.4531 87.7598 32.4531 88.127V90.248C32.4531 90.7012 32.6133 91.0098 32.9336 91.1738L31.873 92.1465C31.6504 92.0293 31.4707 91.8594 31.334 91.6367ZM31.0176 89.2168C30.9121 89.1973 30.8027 89.1875 30.6895 89.1875H30.4551C29.5918 89.1875 29.043 89.3789 28.8086 89.7617C28.7383 89.875 28.7031 89.9941 28.7031 90.1191C28.7031 90.2441 28.7246 90.3555 28.7676 90.4531C28.8145 90.5469 28.8906 90.625 28.9961 90.6875C29.1992 90.8047 29.5 90.8633 29.8984 90.8633C30.3008 90.8633 30.6758 90.7676 31.0234 90.5762C31.0195 90.5332 31.0176 90.4883 31.0176 90.4414V89.2168ZM39.0742 91.4316C38.6367 91.8691 37.9512 92.0879 37.0176 92.0879C36.1113 92.0879 35.3711 91.8125 34.7969 91.2617C34.2148 90.7031 33.9238 89.9609 33.9238 89.0352C33.9238 88.0938 34.2109 87.3203 34.7852 86.7148C35.3945 86.0781 36.209 85.7598 37.2285 85.7598C37.9512 85.7598 38.5566 85.918 39.0449 86.2344L38.8105 87.7344L38.7695 87.7285C38.582 87.502 38.3848 87.3535 38.1777 87.2832C37.8418 87.166 37.5059 87.1074 37.1699 87.1074C36.834 87.1074 36.5703 87.1504 36.3789 87.2363C36.1875 87.3223 36.0234 87.4414 35.8867 87.5938C35.6133 87.9062 35.4766 88.3203 35.4766 88.8359C35.4766 89.75 35.793 90.3477 36.4258 90.6289C36.6445 90.7227 36.875 90.7695 37.1172 90.7695C37.3633 90.7695 37.5762 90.748 37.7559 90.7051C37.9395 90.6621 38.1055 90.6035 38.2539 90.5293C38.5703 90.373 38.7852 90.1914 38.8984 89.9844L38.9395 90.002L39.0742 91.4316ZM43.0176 90.7109C43.5215 90.7109 43.8672 90.5801 44.0547 90.3184H44.1016L44.1191 91.6777C43.9277 91.8691 43.5723 91.9961 43.0527 92.0586C42.9121 92.0781 42.7363 92.0879 42.5254 92.0879C42.3184 92.0879 42.0918 92.0488 41.8457 91.9707C41.6035 91.8926 41.3965 91.7656 41.2246 91.5898C40.8691 91.2266 40.6914 90.6582 40.6914 89.8848V87.2246H39.8066C39.8027 87.1113 39.8008 86.9961 39.8008 86.8789V85.9766C39.8008 85.9102 39.8027 85.877 39.8066 85.877H40.6914V84.207H42.127V85.877H43.7383V87.2246H42.127V89.6152C42.127 90.2285 42.2969 90.5781 42.6367 90.6641C42.7461 90.6953 42.873 90.7109 43.0176 90.7109ZM44.8691 88.9707C44.8691 88.541 44.9414 88.1309 45.0859 87.7402C45.2344 87.3457 45.4453 87.002 45.7188 86.709C46.3164 86.0762 47.0918 85.7598 48.0449 85.7598C48.9941 85.7598 49.748 86.0586 50.3066 86.6562C50.8418 87.2266 51.1094 87.9668 51.1094 88.877C51.1094 89.7871 50.834 90.541 50.2832 91.1387C49.7012 91.7715 48.9297 92.0879 47.9688 92.0879C46.9766 92.0879 46.1992 91.7773 45.6367 91.1562C45.125 90.5898 44.8691 89.8613 44.8691 88.9707ZM46.293 88.9355C46.293 89.1816 46.334 89.4199 46.416 89.6504C46.498 89.8809 46.6152 90.0781 46.7676 90.2422C47.0918 90.5977 47.5176 90.7754 48.0449 90.7754C48.5332 90.7754 48.918 90.6016 49.1992 90.2539C49.4727 89.918 49.6094 89.4805 49.6094 88.9414C49.6094 88.3945 49.4688 87.9531 49.1875 87.6172C48.8867 87.2578 48.4746 87.0781 47.9512 87.0781C47.4199 87.0781 47.0039 87.2695 46.7031 87.6523C46.4297 88.0039 46.293 88.4316 46.293 88.9355ZM55.293 92.0352C55.1055 92.0117 54.623 92 53.8457 92H53.6582V85.5195H52.498C52.1543 85.5195 51.9512 85.5371 51.8887 85.5723C51.8262 85.6074 51.7773 85.6387 51.7422 85.666L51.7246 85.6602V84.1602L51.7422 84.1426C51.8711 84.1855 52.2188 84.207 52.7852 84.207H56.459C56.8027 84.207 57.0059 84.1895 57.0684 84.1543C57.1309 84.1191 57.1797 84.0879 57.2148 84.0605L57.2324 84.0664V85.5664L57.2148 85.584C57.0859 85.541 56.7383 85.5195 56.1719 85.5195H55.293V92.0352ZM59.7285 91.3438C59.7285 91.6797 59.7363 91.8984 59.752 92H58.293V85.877H59.7285V86.3281C60.0605 85.9492 60.4082 85.7598 60.7715 85.7598C61.1387 85.7598 61.4277 85.8047 61.6387 85.8945L61.5332 87.4707L61.5098 87.4883C61.373 87.2461 61.0898 87.125 60.6602 87.125C60.4961 87.125 60.3281 87.1816 60.1562 87.2949C59.9883 87.4043 59.8457 87.5508 59.7285 87.7344V91.3438ZM62.166 84.1309C62.4785 83.6426 62.8047 83.2129 63.1445 82.8418L64.4043 83.832C64.2363 84.0391 64.0801 84.2422 63.9355 84.4414C63.9355 84.4414 63.7852 84.6543 63.4844 85.0801L62.166 84.1309ZM63.707 91.3438C63.707 91.6797 63.7148 91.8984 63.7305 92H62.2422V85.877H63.707V91.3438ZM64.4805 85.877H66.1387L67.5684 89.9082L68.9512 85.877H70.5742L68.1543 92H66.9473L64.4805 85.877ZM71.2246 84.1309C71.5371 83.6426 71.8633 83.2129 72.2031 82.8418L73.4629 83.832C73.2949 84.0391 73.1387 84.2422 72.9941 84.4414C72.9941 84.4414 72.8438 84.6543 72.543 85.0801L71.2246 84.1309ZM72.7656 91.3438C72.7656 91.6797 72.7734 91.8984 72.7891 92H71.3008V85.877H72.7656V91.3438ZM78.4668 91.6367C77.9121 91.9375 77.4102 92.0879 76.9609 92.0879C76.5117 92.0879 76.127 92.0469 75.8066 91.9648C75.4863 91.8789 75.2148 91.7539 74.9922 91.5898C74.5391 91.2578 74.3125 90.7773 74.3125 90.1484C74.3125 89.5859 74.5898 89.1172 75.1445 88.7422C75.7461 88.3359 76.5625 88.1328 77.5938 88.1328L77.8281 88.1387C77.875 88.1426 77.9277 88.1465 77.9863 88.1504C78.0449 88.1504 78.0977 88.1543 78.1445 88.1621C78.1133 87.5371 77.8438 87.1719 77.3359 87.0664C77.168 87.0312 76.9883 87.0137 76.7969 87.0137C76.6094 87.0137 76.4238 87.0312 76.2402 87.0664C76.0605 87.0977 75.8848 87.1406 75.7129 87.1953C75.334 87.3164 75.0625 87.4551 74.8984 87.6113L74.8809 87.5996L74.7051 86.3047C75.3965 85.9414 76.1523 85.7598 76.9727 85.7598C78.2461 85.7598 79.0605 86.2188 79.416 87.1367C79.5293 87.4297 79.5859 87.7598 79.5859 88.127V90.248C79.5859 90.7012 79.7461 91.0098 80.0664 91.1738L79.0059 92.1465C78.7832 92.0293 78.6035 91.8594 78.4668 91.6367ZM78.1504 89.2168C78.0449 89.1973 77.9355 89.1875 77.8223 89.1875H77.5879C76.7246 89.1875 76.1758 89.3789 75.9414 89.7617C75.8711 89.875 75.8359 89.9941 75.8359 90.1191C75.8359 90.2441 75.8574 90.3555 75.9004 90.4531C75.9473 90.5469 76.0234 90.625 76.1289 90.6875C76.332 90.8047 76.6328 90.8633 77.0312 90.8633C77.4336 90.8633 77.8086 90.7676 78.1562 90.5762C78.1523 90.5332 78.1504 90.4883 78.1504 90.4414V89.2168Z" fill="#DDDDDD"/>
</svg>
