<svg width="100" height="100" viewBox="0 0 100 100" fill="none" xmlns="http://www.w3.org/2000/svg">
<path d="M85 41H74.8587C74.7355 54.6297 63.6202 65.8516 50 65.8516V76C69.1799 76 84.8265 60.1955 85 41Z" fill="#FF0080"/>
<path d="M15 41H25.1414C25.2647 54.6297 36.3799 65.8516 50 65.8516V76C30.8203 76 15.1735 60.1955 15 41Z" fill="#35E2F2"/>
<path d="M85 41H74.8585C74.7353 27.3704 63.6201 16.1485 50 16.1485V6C69.1797 6 84.8265 21.8046 85 41Z" fill="#8C13FB"/>
<path d="M15 41H25.1414C25.2647 27.3704 36.3799 16.1485 50 16.1485V6C30.8203 6 15.1735 21.8046 15 41Z" fill="#F6DF0E"/>
</svg>
